<svg xmlns="http://www.w3.org/2000/svg" xmlns:xlink="http://www.w3.org/1999/xlink" version="1.1" width="375pt" height="375pt" viewBox="0 0 375 375">
<defs>
<clipPath id="clip_0">
<path transform="matrix(.24,0,0,.24,0,0)" d="M0 0H1562.5V1593.75H0Z" fill-rule="evenodd"/>
</clipPath>
<clipPath id="clip_1">
<path transform="matrix(.24,0,0,.24,0,0)" d="M0 0H1562.5V1562.5H0Z" fill-rule="evenodd"/>
</clipPath>
<clipPath id="clip_2">
<path transform="matrix(.24,0,0,.24,0,0)" d="M0 0H1562.5V1562.5H0Z" fill-rule="evenodd"/>
</clipPath>
<clipPath id="clip_3">
<path transform="matrix(.24,0,0,.24,0,0)" d="M490.18675 401.95448H1115.1868V886.32949H490.18675Z" fill-rule="evenodd"/>
</clipPath>
<clipPath id="clip_4">
<path transform="matrix(.24,0,0,.24,0,0)" d="M0 0H1562.5V1562.5H0Z" fill-rule="evenodd"/>
</clipPath>
</defs>
<g clip-path="url(#clip_0)">
<path transform="matrix(.75,0,0,.75,0,0)" d="M0 0H500V510H0Z" fill="#ffffff"/>
</g>
<g clip-path="url(#clip_1)">
<path transform="matrix(.75,0,0,.75,0,0)" d="M0 0H500V500H0Z" fill="#ffffff"/>
</g>
<g clip-path="url(#clip_2)">
<path transform="matrix(.75,0,0,.75,0,0)" d="M0 0H500V500H0Z" fill="#5cb6f9"/>
</g>
<g clip-path="url(#clip_3)">
<path transform="matrix(.007190215,0,0,.007168536,89.91425,26.568676)" d="M6133.17 12827.37H14369.06V13499.7709H7116.4099C6847.53 13499.7709 6627.5598 13719.74 6627.5598 13988.62V21648.872C6627.5598 21917.752 6847.53 22137.71 7116.4099 22137.71H19747.459C20016.34 22137.71 20236.309 21917.75 20236.309 21648.872V19204.092H21295.678V22245.083C21295.678 22436.102 21199.639 22605.682 21053.467 22708.122H21295.678C21295.678 22708.122 21893.239 23414.342 23088.438 24826.852 22925.319 25472.842 22599.409 25853.083 22110.557 25967.72 22110.557 25967.72 16406.297 25967.72 4997.7268 25967.72 4434.5969 25952.75 4054.2867 25572.5 3856.8668 24826.852 3856.8668 24826.852 4454.487 24120.63 5649.6867 22708.122H5810.3967C5664.2268 22605.682 5568.1867 22436.102 5568.1867 22245.083V13392.292C5568.1867 13081.582 5822.4069 12827.372 6133.1667 12827.372L6133.17 12827.37ZM12087.33 25152.77H14857.97C14992.439 25152.77 15102.45 25262.79 15102.45 25397.25 15102.45 25531.72 14992.44 25641.74 14857.97 25641.74H12087.33C11952.87 25641.74 11842.85 25531.72 11842.85 25397.25 11842.85 25262.79 11952.869 25152.77 12087.33 25152.77ZM10539.061 24908.35C10864.98 24419.379 11027.971 24174.9 11027.971 24174.9 14287.57 24174.9 15917.341 24174.9 15917.341 24174.9 16243.321 24663.862 16406.3 24908.35 16406.3 24908.35 12494.811 24908.35 10539.061 24908.35 10539.061 24908.35Z" fill="#050a30" fill-rule="evenodd"/>
<path transform="matrix(.007190215,0,0,.007168536,89.91425,26.568676)" d="M12168.83 17981.73H13798.6V19611.5H12168.83Z" fill="#12229d" fill-rule="evenodd"/>
<path transform="matrix(.007190215,0,0,.007168536,89.91425,26.568676)" d="M14694.98 17900.24H16142.05V19347.31H14694.98Z" fill="#233dff" fill-rule="evenodd"/>
<path transform="matrix(.007190215,0,0,.007168536,89.91425,26.568676)" d="M19823.41 15373.47H22920.58V18470.64H19823.41Z" fill="#4298bd" fill-rule="evenodd"/>
<path transform="matrix(.007190215,0,0,.007168536,89.91425,26.568676)" d="M17394.03 17339.69H19176.93V19122.59H17394.03Z" fill="#f4f6fc" fill-rule="evenodd"/>
<path transform="matrix(.007190215,0,0,.007168536,89.91425,26.568676)" d="M15764.2 15383.95H17547.1V17166.85H15764.2Z" fill="#12229d" fill-rule="evenodd"/>
<path transform="matrix(.007190215,0,0,.007168536,89.91425,26.568676)" d="M15107.38 13097.29H16890.28V14880.19H15107.38Z" fill="#4298bd" fill-rule="evenodd"/>
<path transform="matrix(.007190215,0,0,.007168536,89.91425,26.568676)" d="M13238.05 16117.34H14685.12V17564.41H13238.05Z" fill="#f4f6fc" fill-rule="evenodd"/>
<path transform="matrix(.007190215,0,0,.007168536,89.91425,26.568676)" d="M17872.78 12358.66H20399.24V14885.12H17872.78Z" fill="#233dff" fill-rule="evenodd"/>
<path transform="matrix(.007190215,0,0,.007168536,89.91425,26.568676)" d="M18366.98 10000.68H20149.88V11783.58H18366.98Z" fill="#12229d" fill-rule="evenodd"/>
<path transform="matrix(.007190215,0,0,.007168536,89.91425,26.568676)" d="M20969.39 9751.02H24718.14V13499.77H20969.39Z" fill="#f4f6fc" fill-rule="evenodd"/>
</g>
<g clip-path="url(#clip_4)">
<text fill="#f4f6fc" xml:space="preserve" transform="matrix(.75 0 0 .75 37.5 223.82596)" font-size="42.64" font-family="HKGrotesk" font-weight="bold"><tspan y="33" x="100.203128 141.89154 165.36859 177.29444 189.22028 211.42774 253.11615 275.3236">WolleWeb</tspan></text>
<text fill="#f4f6fc" xml:space="preserve" transform="matrix(.75 0 0 .75 38.219999 256.72425)" font-size="24" font-family="HKGrotesk" font-weight="bold"><tspan y="23" x="65.8125 91.205158 107.715 124.56468 142.9964 159.50624 177.16452 193.67436 208.05139 227.87764 243.47342 259.98329 282.97358 299.4834 318.44245">WEBDEVELOPEMENT</tspan></text>
</g>
</svg>
